<svg width="23" height="20" fill="none" xmlns="http://www.w3.org/2000/svg"><path d="M11.39 0C5.077 0 .001 4.157.001 9.286c0 2.216.953 4.24 2.544 5.835-.558 2.25-2.423 4.254-2.446 4.276-.1.1-.128.256-.067.39.056.134.18.213.325.213 2.958 0 5.139-1.418 6.277-2.294 1.457.547 3.082.865 4.795.865 6.313 0 11.39-4.158 11.39-9.246S17.702 0 11.39 0zM5.635 10.715c-.792 0-1.428-.636-1.428-1.388 0-.753.636-1.43 1.428-1.43.793 0 1.43.637 1.43 1.43 0 .792-.6 1.388-1.43 1.388zm5.755 0a1.381 1.381 0 01-1.388-1.388c0-.753.636-1.43 1.388-1.43.753 0 1.389.637 1.389 1.43 0 .792-.594 1.388-1.389 1.388zm5.675 0c-.793 0-1.429-.636-1.429-1.388 0-.753.636-1.43 1.429-1.43.792 0 1.428.637 1.428 1.43 0 .792-.598 1.388-1.428 1.388z" fill="#303030"/></svg>