<svg width="846" height="91" fill="none" xmlns="http://www.w3.org/2000/svg"><path d="M37 22l4-9 2-6-5 11-1 4zM19 77zm0-1zm-2-1v1l1-1h-1zm-5 7h1l4-7-4 5-1 2zm2-7l-2 3h-1l-1 4 4-7zm4-1v1-1zm-3 1h1v-1l-1 1zm5-1v1-1zm1 1l1-1h-1v1zm3-2v1-1zm-1-1v1h1v-1h-1zm2 0zm-5-1l-1 1v1l1-1v-1zm4-1l1 1v-1h-1zm-2 0l1 2v-2h-1zm-10 6l4-5v-1h-1l-3 6zm12-8v1-1zm-7 0v1-1zm6-2v1h1l-1-1zm-6-3v2h1v-2h-1zm-1-3v1l1 2v-1l-1-2zm9 3v1l3-6-3 5zm-3-8v3-3zm-9-2v1l2 8-1 1 1 3h1v-2l-3-11zm17 0l-1 3 2-3h-1zm-13-3l2 8h1l-3-8zm-1-1zm-3-2v1-1zm2 0l1 1v-1h-1zm5 0l1 7h1l-2-7zm6 0l-3 7v1l4-8h-1zm-6 0zm0-1zm9 0v-1 1zm-10-1v1h1v-1h-1zm0-1v1-1zm-4 0v1-1zm4 0zm-4 0zm4-1v1-1zm0 0zm0-1zm-7-1v1l1 5-1-6zm-2-2h1-1zm4-1v1-1zm17 16h1l-4 7-2 4h-1l1 2a258 258 0 005-13zm-1-12l2-5-2 5zm8-6c-1 2-3 5-4 11l3-6h-1l2-5zm-6 0zm1 1l1-1h-1v1zM6 35h1-1zm1-1v1l3 9v1h1v-1L7 34zm0 0zm8-2v1-1zm-4 0v1-1zm0 0zm0 0zm23 3h1l1-4-2 4zm-23-5v1-1zm30 1l1-1-1 1zm-31-2zm25-3zM8 25zm-3 0l3 7 2 7v-1L6 27l-1-2zm33-1a112 112 0 001 0h-1zm4 3h1l2-4-3 4zm-7-2l1-2-1 2zm6-3v1-1zm1-1v1-1zm0 0l1-1-1 1zM8 19v1l2 4 7 20-2-8-7-17zm-3 0zm40 0l-2 5 2-5zm-2 1l1-2-1 2zm-2-1l2-2-2 2zm5-3zm-4-2l-3 6h1l2-6zm-4 0l-8 21v2l4-13 4-10zM3 14v2h1l-1-2zm-1-1h1-1zm0-1v1-1zm40 4c2-1 3-2 3-4l-3 4zM2 12zm43-3l-2 3v1l2-4zm-2-5h1v1l-1 4 3-3 1 1-2 3h1v2h1l-1 2v1h1v3l2-5h1v1a186 186 0 00-6 18l-1-1v-2l-4 11a1213 1213 0 00-13 28 188 188 0 003 13l-1 1-2-5-1-4v4h-1v1l-2-3-2 3 1 1v1h-1l-1-1-1-2-6 7h-1v-1l1-2-2 2H9l2-7v-1h-1v1H9v-1l6-8A623 623 0 005 40a157 157 0 018 20l-2-12-3-7-3-7v-1l1 1L0 6V5h1l2 8 5 12v-1l-2-6 1-1-1-3a86 86 0 018 17l-4-14h1l3 9a106 106 0 015 16l-2-7v-1l3 8 2 10a153 153 0 0010-25l6-15h1v2l4-10zm53 3l1-1-1 1zM83 78v1-1zm-2 0v1-1zm3-1h1-1zm-2 0zm2-1v1-1zm1-1h1-1zm-5-2h1-1zm1-2v1h1v-1h-1zm2-1zm4 3v1l5-4v-1l-5 4zm-3-4zm-4-2l1 4v-1l-1-3zm3-1v2-2zm12-1l1 1 1-2-2 1zm-3-2zm-15 0h1-1zm15 8l8-7 2-2-2 2-5 2-3 4v1zm7-8v1l2-2h-1l-1 1zm0-1zm-18-2l1 3-1-3zm20 0v1l1-1v-1l-1 1zm-22-1l3 10h1a83 83 0 01-4-10zm27-1l1-1v-1l-1 2zm-11 2l4-4-4 4zm-16-5v3-3zm11 9l8-9c-3 2-6 5-8 9zm1 9a116 116 0 0020-19l-4 5-7 7-9 7zM79 54v1-1zm-2-4zm42-1v1-1zm-1-1v1h1l-1-1zm-9 6l6-4 2-2h-1l-6 5-1 1zm8-7v1l1-1h-1zm-18 6l9-7-9 7zm17-7zm-5 1l1-1-1 1zm10-1l-1 1 3 3-2-4zm-12 1l2-2-2 2zm8-2zm2 0l1-1-1 1zm-9-1zm8 0l1-1-1 1zm-7-1h1v-1l-1 1zm4-1v1h1v-1h-1zm5 0l1-1-1 1zm3-1l1-1-1 1zm-7 0l1 1 1-1-1-1-1 1zm-3-2v1h1l-1-1zm13-1v1h1v-1h-1zm-8 1l1 1 3-3-4 2zm-52 1l3-4-3 4zm61-2l2-2-2 2zm-4 2l4-4-2 2-2 2zm-13-4l3 4-3-4zm-38-1l4 15h1v-1l-3-9a77 77 0 01-2-5zm36-2h1-1zm-32-1l1 1-1-1zm30-2l2 2-1-2h-1zm0-1zm0-2l8 11v1l2-2-9-10h-1zm0-1v1-1zm-37-3l2 5v-1l-1-4h-1zm8 0l1-1-1 1zm-8-1zm0 0zm10 0l2-1-2 1zm20-3l5 7v-1l-5-6zm-22 3l4-4-4 4zm18-5l1 2-1-2zm3-1l1 1-1-1zm-7 0c-7 6-11 11-14 15a346 346 0 009 35l7-8 7-7 10-8-1-1v1L98 25l-7-9zm4 0h1-1zm-11-1h1-1zm8-1l2 2v-1l-2-1zm-1-3h1-1zm3-1V9v1zm0-6h1l-2 3h1l4-3h1l-6 8v1l3 2-1-3h1l6 9 14 16 3-2 6-6-6 7-1 1 4-1 2-2h1v1l-1 2 4-5h1v1l-1 2 2-1h1l-3 4-3 2-3 4-1 1 3 6v1l-4-4 1 3v1l-4-3-5 5v1L98 69l-9 6v-1l-2 2 2 9-4-7h-1l1 4h-1l-1-3-4 4h-1l2-2 1-1h-1l-1 1h-1l1-2-3 3v-2l3-3h-1l-3 2v-1l4-4 1-2-3-10-2-4h1l2 4v-1l-2-7v-1l-4-17h-1l-1 3h-1l-6 7-1-1 3-4h-1l2-2v-1l-3 2v-1l2-1-1-1 5-4v-1h-1l2-2-2-5h1v1l-2-10 4 8v-2h1l1 3-1-6h1l1 5 8-9 5-4-1-1 1-1 1 1-3-4h1l3 4 3-3 1-2 1-1zm46 12v-4 4zm18 63v-1 1zm1-1zm-8 1l4-2v-1l-4 3zm7-4l-1-1v1h1zm3-2h1v-1l-1 1zm-6 0zm2-3zm16 0l2-2v-1l-2 3zm-16 0l-2-2 2 2zm-2-3h-1 1zm10 2l8-5-8 5zm15-7l1-1h-1v1zm-39 0v-1 1zm42-3v-1 1zm-42 0v-1 1zm42-2zm3 0v-1l-1 1h1zm-47 0zm0-1h-1 1zm-1-1zm47 1l3-2v-1l-3 2v1zm-39 1v-6 6zm37-1v-7 7zm-40-3v-7 7zm1 2V43v12zm39-14v-2h-1l1 2zm0-8v-1 1zm-39 1v-2 2zm37 0h1v-2l-1-2v4zm1-7v-1 1zm-36 16v-4l-1-14v18h1zm-5 3v-8h1v-6l-1-1v-6 7h-1l1 14zm43-27v-4 4zm-37 64h-1l8-8-5-8-2-3v5h-2v-7 3l-1-1v-2l-1 6v-5l-1 3-1 2-1-6v-2l-3-5-1-1v-3l3 4h1a101 101 0 00-4-6h1l-1-1v-1h1l3 3-1-19 1-1a1375 1375 0 010-23l1 7v-1l1-3v1l1 10V10h1V9h1v9-1h1v21a393 393 0 011 20h1v1l9 10 2 3c2 0 4-2 6-4 1-1 3-3 7-4l5-3 3-4v-7l-1-17-1-2 1-1V7v1h1v1h1V6v1l1 6v8l1-12V8l1-1v1l1 37v9l4-2v3l-1 1 3-1h1l-6 5v2h-1v-1h-1l1 4-1 3v-2l-1-5v4l-1-2h-1l1 5h-1v-4h-1l-1 1-6 6v-2l-10 7 2 2-1 1-2-2h-1l4 5-2-1-3-3-1 1 1 2h-1l-2-1-1 1h-1l1-2-5 3 5-4-9 5zm72-76h-2 2zm16 73v-1l-1 1h1zm-1 2l-2-2v1l2 1zm-3 0v-1l-2-1 2 2zm2-3h1v-1l-2-1-2 1 2 1h1zm-3-3v-1l-1 1h1zm4 1l1-5-3 4 2 1zm-4-2l2-4-2 3v1zm-5-2h1l-2-1 1 1zm-2 4l-5-3 5 3zm17-13h1l-1-1v1zm-2 1l3-4v-1l-3 5zm-22 7l-4-2 4 2zm18 5h1l11-19-9 11a58 58 0 00-3 8zm16-19l-2-1v1h2zm-9 5l4-6-4 6zm5-6v-1 1zm1-2zm-10 5l3-4-3 4zm3-4h1l-1-1v1zm-18 16c-1-2-4-3-6-4l-6-3 2 2 10 5zm26-20zm1-1h1l-2-1v1h1zm1-1l1-1-2-1v1l1 1zm-10 4l1-1-7-3h-1l7 4zm5-5v-1l-4-1 4 2zm1-1v-1l-9-3 9 4zm-6-4l-6-2 6 2zm-3 5l-7-3-4-2 11 5zm5 1h1l-13-8a98 98 0 0012 8zm-19-6l-3-1 3 1zm7-5l-3-1 3 1zm-16-2zm16 8h1a161 161 0 00-16-8l8 4 7 4zm-16-8h-1 1zm-1 0l-2-2 2 2zm-4-2l-1-1 1 1zm0-1l-1-1 1 1zm8-1l-5-3v1l5 2zm-6-2l1-1-1-1-1 1 1 1zm-8 3l2-4-2 4zm37-16l-3-1v1h3zm-3 0v-1 1zm-1-1zm-24 12l2-4-3 3v1h1zm24-12zm-30 11l1-1-1 1zm29-11zm10-2h4l-4-1h-2l-2 1h4zm-10 2zm-30 11l1-2h-1l-1 2h1zm1-3zm-3 2l1-2-1 2zm36-12h-5l-1-1h-2l8 1zm-7 1v-1h-3l3 1zm8-6l-1-1v1h1zm-17 6v-1 1zm-18 8l2-3-2 3zm24-10h1l-3-1 2 1zm-16 11l7-9-4 5h-1l-2 4zm8-9l2-2-1-1-1 3zm-11 5l4-6c-1 0-3 2-4 6zm20-11l-5-1 5 1zm-15 4l2-2-2 2zm9 71h-1l2-1 1-3-1-1-1 1h-1l-2 3 2-4v-1h1-1v1l-1-1v-1a194 194 0 00-12-9h1l-4-3v-1l-1-1v-1h1l10 5-6-6v-1l5 4 5 5 5 2 6-7 7-9 1-1-12-8-19-9v-1l9 4-9-5a41 41 0 01-2 5h-1l2-5-2-1-4 5-1 2-2 1v1l-1-1 3-3h-1l-1-1 5-9h-1a51 51 0 00-6 14l-1-1 2-6 3-8-3-1v-1l3 1 2-4-1-1 2 1 5-7h1l-1 2 6-8h-2v-1h2V9h3V8l-5-2V5a108 108 0 019 1l3-2-1 2 6-5-4 6 8 1-7-1V6a82 82 0 0114 3h1l12 3 2 1h-2a17 17 0 01-4 0h-2l3 2-4 1h2v1h-4a78 78 0 01-8-1v1l6 1v1h-1a60 60 0 01-17-4 47 47 0 00-6 7v-2l-6 10 9 6a160 160 0 0126 10h1a168 168 0 0113-11 170 170 0 01-12 12l4 2h-2v2l1 1-1 1-1-1-2 3 5 2-5-2-1 1 5 4h-1l-5-2-12 21 2 2h-1l1 1v1h-1l1 1-5-2v1h-1v1l-4-2-2 3h-1zm98-12l-1-15v-2l1 17zm28-61h-1 1zm-4 1l3-1-3 1zm-7 2l3-1v-1l-3 1v1zm-5-2l7-3h1c-3 0-5 1-8 3zm0 5l4-2h-1l-3 2zm-21 2v-1h-1v1h1zm0-1h1-1zm3 0v-1 1zm2 1zm0-1l-1-1 1 1zm0 8v-4h-1l1-1v-1l-1 1 1 5zm14 47l1-1h-1v1zm5-6zm1 0zm-1-1l7-2h1v-1l-8 3zm-1 0h1-1zm0 3h1v-1l-1 1zm-1 1h1-1zm-3 0l3-2-4 1v1h1zm-1-2v-1 1zm-2 3h1v-1h-1v1zm0-3zm-2-15zm0 6l-1-10h-1l2 9v1zm-2-10h1v-1h-1v1zm0 8v-1 1zm0-37l2-1h-1l-2 1h1zm-2-3l1-1 2-1-2 1v-1l2-1-4 1 1 2zm0 29v-2h-1l1 2zm-1-18zm0-1v-4 4zm0-6v-1 1zm-1-4h1v-1h-1v1zm-1 2h1-1zm1 35l-1-5v1l1 4zm-2-35h1l-1-2v2zm0 1h1-1zm2 5l-1-4h-1l1 4h1zm-1 36v-2 2zm0 1v-1 1zm1 11l-1-11v1l1 10zm0 2v-1 1zm2-10v-2l-1-4a166 166 0 011 6zm0 0zm0 5h1-1zm1 2zm0-1zm0-29h1l-2-13v4l1 6v3zm0 7zm0 1zm0 1zm0 18zm1 1h-1 1zm0-8v-1 1zm1 8v-1l-1-7 1 8zm2 5zm1-3l-1-2v2h1zm-1 12v-2l-1-1 1 3zm0-6h-1 1zm0-1l-1-7-1 1 1 6h1zm-1-10v-3l1-1-3-6 2 10zm0-19l3-1h-3v1zm13-6h-1 1zm9-1zm-8 3l7-3-6 2h-1v1zm-12 45l-2-6-1-7-1-5v10l-1-4-1-2h-1a8 8 0 011 3l-1 1-1-3v3l-1 1-1-4-1 1v-1l-6 3-1-1 8-3-4 1v-1l4-1v-1a398 398 0 010-23l-3 1 3-2v-1l-5 2v-1l5-2v-3l-1-12-2-8-9 2 2-1 6-2v-2l-4 1h-1l5-2-1-1a258 258 0 00-11 2 62 62 0 0111-4l-1-8 2 8h1l-1-5 1 1 1 3h1v-3h2v2h1V7l1 7v1l1 1a547 547 0 0118-4l3-2v1l-1 1 11-2 1 1-12 4a126 126 0 01-20 7v1l2 12 1 7 2-1a420 420 0 0020-7v1l-5 2-5 4 7-4h1l-6 4 3-1h3l3-1h1l4-1-7 3-1 1a338 338 0 0110-2l-13 5-16 5 1 7a83 83 0 013 11 180 180 0 0116-5v1l3-1v1l-4 2 1-1v1l8-3c-2 2-5 3-10 4l-3 2a106 106 0 0113-4l-16 6-7 3v5l-1-4-1-2h-1l1 7v1h-1v9zm54-77l1 4h1l-1-4h-1zm17 55zm0-1zm0-1v1-1zm-1-1v1h1v-1h-1zm0-1v1-1zm0 0zm2-1zm-2 0zm2-1v1-1zm-2 0v1-1zm-7 0zm-1-1h1-1zm2-1v1l1 6-1-7zm7 0v2h1l-1-2zm0-1v1-1zm0 0zm-1-2zm-1-1v1h1v-1h-1zm0-1v1-1zm0 0zm-8 0zm0-1zm0-1v1-1zm0-1v1-1zm0 0zm-1-1h1-1zm10-1v1-1zm-10 0zm8-1zm0 0zm-1-1h1-1zm0-1v1-1zm0 0zm0-1zm-3 0a89 89 0 007 26l-4-13-3-13zm3-1v1-1zm-4 0h1-1zm4 0zm-1-1h1-1zm0-1v1-1zm0 0zm1-2l2 9h1l-3-9zm0 0zm0-1zm0-1v1-1zm-7 0v1l2 11-1-5-1-7zm7 0zm-7 0zm6-1v1h1v-1h-1zm-6 0zm6 0zm-7-2v1-1zm-1-1v1h1v-1h-1zm0-2v2-2zm0-1zm4-1l3 12-2-12h-1zm1-1l2 9 1-1-3-8zm-1 0v1-1zm2 0zm-1 0zm0-2l1 1v-1h-1zm-9-2h1v-1l-1 1zm-5-2h1-1zm2 0v1l3-1v-1l-3 1zm-4-1zm-7-1v1h1v-1h-1zm11 0zm-10 0zm19 0zm-8 0h2-2zm11 1v1l12-3v-1h-1l-11 3zm12-3zm-13 1v1l6-2h-1l-5 1zm6-1zm7-1h1-1zm-2 0h1-1zm1 0h1-1zm-8 0h2-2zm3 0zm-13-1zm4 0zm-4-1v1-1zm2-7l3 8 1-1v1a108 108 0 0118-4l-2 1h4l-3 1-2 1h1l4-1v1l-4 1-2 1 9-2-9 4-13 4 4 12 4 16 4 17 1 4-1 1-2-8h-1v1l1 1h-1a192 192 0 011 9l1 1h-1l-3-7v1l1 4-4-9-1 1v5-1l-1-3v1h-1v-1 1h-1v-8l-1 1-1-5a170 170 0 00-3-17l-2-15-1-1-8 2v-1l4-1h-1l-9 2v-1l-2 1v-1l7-2 3-1-7 2-1-1 6-2a123 123 0 01-11 1l3-1h1-2v-1h1l14-3-3-8 4 8c0-4-1-6-2-7l1-1 1 1v-2l1 3h1v-1h1v-2h1zm49 63l-1-15-1-2 2 17zm27-61zm-3 1l3-1h-1l-2 1zm-8 2l4-1v-1h-1l-2 1-1 1zm-4-2l7-3-7 3zm-1 5l4-2-4 2zm-21 2v-1 1zm1-1h1-1zm2 0h1v-1h-1v1zm2 1h1-1zm0-1v-1 1zm1 8v-4h-1l1-1v-1l-2 1 1 5h1zm13 47l1-1h-1v1zm6-6zm1 0h-1 1zm-1-1l7-2 1-1h-1l-7 3zm-1 0zm0 3h1v-1l-1 1zm-1 1h1-1zm-4 0l4-2-4 1v1zm0-2v-1l-1 1h1zm-2 3h1l-1-1v1zm0-3zm-2-15zm0 6l-1-10h-1l1 9 1 1zm-2-10v-1 1zm0 8v-1 1zm-1-37l2-1-2 1zm-2-3l2-1 1-1-1 1v-1l1-1-3 1v2zm0 29l1-1v-1h-1v2zm0-18zm0-1v-4l-1 1 1 3zm0-6v-1h-1v1h1zm-2-4h1v-1h-1v1zm0 2h1-1zm1 35l-1-5v1l1 4zm-2-35v-2 2zm0 1zm1 5v-4h-1l1 4zm0 36v-2h-1v2h1zm0 1v-1l-1 1h1zm1 11l-1-11v11h1zm-1 2l1-1h-1v1zm3-10v-2l-1-4a176 176 0 011 6zm0 0zm0 5zm1 2h-1 1zm-1-1zm1-29l-1-13v4l1 6v3zm0 7zm0 1zm0 1zm0 18zm0 1zm0-8v-1 1zm1 8l1-1-1-7h-1l1 8zm3 5zm0-3v-2 2zm0 12v-2l-1-1 1 3zm-1-6zm0-1v-7l-1 1 1 6zm0-10v-4l-2-6 2 10zm0-19l2-1h1-3v1zm12-6zm10-1zm-8 3l7-3-6 2h-2l1 1zm-12 45l-2-6-2-7v-5h-1v1l1 9-2-4-1-2a8 8 0 010 3v1l-1-3v3l-1 1-1-4-1 1v-1l-7 3v-1l8-3-4 1v-1l4-1v-1a397 397 0 010-23l-3 1 3-2v-1l-5 2-1-1 6-2v-3l-1-12-3-8-8 2h-1l3-1 6-2v-2l-5 1 4-2v-1a258 258 0 00-11 2 62 62 0 0111-4l-2-8h1l2 8h1l-1-5 1 1 1 3h1v-3h1l1 2h1l-1-8 1-1 1 7v2l7-2a547 547 0 0112-3l2-1 1 1-1 1 11-2 1 1-12 4a126 126 0 01-20 7v1l2 12 1 7 2-1a420 420 0 0019-7v1l-4 2-5 4 6-4h2l-6 4 2-1h4l3-1 5-1-7 3-1 1a337 337 0 0110-2l-13 5-16 5 1 7a83 83 0 012 11 180 180 0 0117-5v1l3-1v1l-5 2 2-1v1l7-3h1c-2 2-6 3-10 4l-3 2a106 106 0 0112-4h1c-3 2-8 4-17 6l-7 3 1 5-2-4v-2h-1l1 7h-1v10zm53-83h-2 2zm16 73l-1-1v1h1zm-1 2l-2-2v1l2 1zm-4 0l1-1-2-1h-1l2 2zm3-3h1-1l1-1-2-1-2 1 2 1h1zm-4-3l1-1-1 1zm5 1l1-5-3 4 2 1zm-4-2l2-4-2 3v1zm-5-2l-1-1 1 1zm-2 4l-5-3 5 3zm17-13v-1 1zm-2 1l3-4v-1l-3 5zm-22 7l-4-2 4 2zm18 5l12-19-9 11a59 59 0 00-3 8zm16-19l-2-1h-1v1h3zm-9 5l4-6-4 6zm5-6v-1 1zm1-2zm-10 5l3-4-3 4zm3-4v-1 1zm-18 16l-6-4-6-3h-1l3 2 10 5zm26-20zm1-1h1l-2-1-1 1h2zm1-1l1-1-2-1v1l1 1zm-10 4l1-1-8-3 7 4zm5-5v-1l-4-1 4 2zm1-1v-1l-9-3 9 4zm-6-4l-6-2 6 2zm-3 5l-7-3-4-2 11 5zm5 1c-7-5-11-8-13-8h1a98 98 0 0012 8zm-19-6l-3-1 3 1zm7-5l-3-1 3 1zm-16-2zm16 8a161 161 0 00-15-8l7 4 8 4zm-16-8h-1 1zm-1 0l-2-2 2 2zm-4-2l-1-1 1 1zm0-1l-1-1 1 1zm7-1h1l-5-3v1l4 2zm-5-2v-2l-1 1 1 1zm-8 3l2-4h-1l-1 4zm37-16l-3-1v1h3zm-3 0v-1 1zm-1-1zm-24 12l2-4-3 3v1h1zm24-12zm-30 11l1-1-1 1zm29-11zm10-2h4l-5-1h-1l-2 1h4zm-10 2h-1 1zm-30 11l1-2h-1l-1 2h1zm1-3zm-3 2l1-2-1 2zm36-12h-5l-2-1h-1l8 1zm-7 1v-1h-3l3 1zm8-6l-1-1v1h1zm-17 6v-1 1zm-18 8l2-3-3 3h1zm24-10h1l-3-1 2 1zm-16 11l7-9-4 5h-1l-2 4zm8-9l2-2-1-1-1 3zm-11 5l4-6h-1l-4 6h1zm20-11l-5-1 5 1zm-15 4l2-2h-1l-1 2zm9 71h-1l1-1 2-3-1-1-1 1h-1l-2 3 2-4v-1l-1 1v-2a194 194 0 00-12-9h1l-4-3h-1l1-1-1-1v-1l11 5-6-6v-1l5 4 5 5 5 2 6-7 7-9 1-1-13-8-18-9v-1l8 4h1l-9-5a41 41 0 01-2 5h-1l2-5-2-1-4 5-1 2-2 1v1l-1-1 2-3-1-1 5-9h-1a51 51 0 00-6 14h-1v-1l2-6 3-8-3-1v-1l3 1 2-4-1-1 2 1 5-7h1l-1 2 6-8h-2v-1h2V9h3V8l-6-2 1-1a108 108 0 019 1l3-2-1 2 5-5h1l-5 6 9 1-7-1-1-1h1a82 82 0 0114 3l13 3 2 1h-2a17 17 0 01-4 0h-2l3 2-4 1h2v1h-4a78 78 0 01-8-1v1l6 1v1h-1a60 60 0 01-17-4 47 47 0 00-6 7v-2l-6 10 9 6a160 160 0 0125 10h2a168 168 0 0112-11 171 171 0 01-11 12l4 2h-2l-1 2 1 1v1l-1-1-2 3 5 2h-1l-4-2-1 1 5 4h-1l-5-2-12 21 1 2 1 1v1h-1l1 1-5-2v1h-1v1l-4-2-3 3zM635 9V8v1zm-26 65zm0 0zm-1-1zm-1-1h1-1zm-1-5v1-1zm-3-2l1 8-1-8zm49-1zm-3-2v1h1v-1h-1zm0 0zm-2-1l2 8-2-8zm2 0zm-43 0l2 9 1 3-3-12zm41-1v1-1zm0-1v1-1zm0 0zm-1-1h1-1zm0-1zm0-1zm-32 0h1-1zm35-1v1-1zm-3 0v1-1zm-46-2v1a176 176 0 000-1zm44 0v1-1zm0 0zm-44 0zm45-1v1-1zm-2 0h1-1zm-22 0h1-1zm-1 0l-1 2h1v-2zm28-1l1 4-1-4zm0-1v1-1zm-28 0v1h1l-1-1zm-6-1zm0 0zm32-2v1-1zm-4 0v1l1 4-1-5zm-21 0l-1 2 1 1 1-2-1-1zm21 0zm4 0zm-31 0l-1 1 2-1h-1zm32-1v1-1zm-1 0v1-1zm1-1v1-1zm-1 0v1-1zm0 0h1-1zm0 0zm-3 0zm-24 0v-1 1zm26-1h1-1zm-2 0zm-41 0l3 16 1-1-4-15zm43-1v1-1zm-3 0v1h1v-1h-1zm-1 0zm4 0zm-1 0zm-2-1v1-1zm-23 0v1-1zm-17 0v1-1zm43 0zm-3 0zm-40 0zm43-1v1-1zm-27 1v-1 1zm-17-1h1-1zm44 0zm-22 4v1l3-6-3 5zm-3-5v1-1zm-19 0v1-1zm0-1v1-1zm0 0zm39 0v3h1l-1-3zm-1-1h1-1zm0-1v1-1zm2 0l1 5v-1l-1-4zm-2 0zm-28 0zm-14 0zm42-1v1-1zm0-2zm0 0zm-30 0l2 2-2-2zm-3-1l8 11-2-4-3-4-3-3zm33 0zm-15 0l-1 1h1v-1zm-16 0h1-1zm21-1a45 45 0 00-7 11h1l6-11zm10 0zm-14-1l-1 1 1-1zm-14-2v1-1zm-11-1l-1 1 7 29 9-12a1122 1122 0 00-15-16v-2zm30-1l-3 6a44 44 0 014-5l-1-1zm-31 0v1h1v-1h-1zm1-1l4 4-4-4zm-1-2v1-1zm38-1v1-1zm0 0zm-36-1l2 3-2-3zm35 0h1-1zm-7 4l2-4-2 4zm14-4l5 25 4 16v1-1a905 905 0 00-8-41h-1zm0-1zm-47 0v1-1zm47-1v1-1zm-13 7h1l3-7-4 7zm-31-9v1-1zm39-3v1h1v-1h-1zm-45 0zm-2 0h1-1zm46 1v1l1-2-1 1zm4-2l-3 5a184 184 0 016 23l-4-18h1l2 8 3 12a620 620 0 00-5-30zm-47-1v1l2 3 1 2v-1l-1-3-2-2zm46 0l-1 2 1-2zm-7 0l-1 2v1l1-1v-2zm-42 0zm2-1v1-1zm-3 0h1-1zm47 2l3-3-1-1-2 4zm-46-4zm43 0v3l1-2v-1h-1zm6-1h1-1zm-1-1l-3 4 3-3V8zm-54-4h1l3 5V8h1l1 1V7l1 3 4 4v-3l1 2 2 2 7 9 3 4v-3l1 2a92 92 0 008 12h1l14-28V9l1 1 2-4v5l2-5h1l1 2 3-2h1v2l-2 4a271 271 0 0112 57c2 3 2 6 2 9v1l-2-8-3-5v2l-1-5v6l1 6h-1a90 90 0 01-6-19v9l-2-13-7-28-9 18-2 4v1l4 7h-2l-3-5-1 2 3 4-1 1-3-3-2 4h-1v-1l1-5a77 77 0 00-5 9l-1-1 1-2h-1l3-5 1-4-3 5v-3l-7 10 4 22-3-9 1 5h-1l1 3v1h-1l-2-8h-1l1 9v3h-1l-2-14a285 285 0 01-6-32l-3-16-3-7-5-6v-1h1l3 3-5-8V4zm114 3l1-1-1 1zm-13 71v1-1zm-2 0v1-1zm3-1h1-1zm-2 0zm2-1v1-1zm1-1h1-1zm-5-2h1-1zm1-2v1-1zm2-1zm4 3v1l5-4v-1l-5 4zm-3-4zm-4-2l1 4v-1l-1-3zm3-1v2-2zm12-1l1 1 1-2-2 1zm-4-2h1-1zm-14 0h1-1zm15 8l8-7 2-2-2 2-5 2-3 4v1zm7-8v1l2-2h-1l-1 1zm0-1zm-18-2l1 3-1-3zm20 0v1l1-1v-1l-1 1zm-22-1l3 10h1a83 83 0 01-4-10zm27-1l1-1v-1l-1 2zm-11 2l4-4-4 4zm-16-5v3-3zm11 9l8-9c-3 2-6 5-8 9zm1 9a117 117 0 0020-19l-4 5-7 7-9 7zm-12-19v1-1zm-3-4h1-1zm43-1v1-1zm-1-1v1h1l-1-1zm-9 6l6-4 2-2h-1l-6 5-1 1zm8-7v1l1-1h-1zm-18 6l9-7-9 7zm17-7zm-5 1l1-1-1 1zm10-1l-1 1 3 3-2-4zm-12 1l2-2-2 2zm8-2zm2 0l1-1-1 1zm-9-1zm8 0l1-1-1 1zm-7-1h1v-1l-1 1zm4-1v1h1v-1h-1zm5 0l1-1-1 1zm3-1l1-1-1 1zm-7 0v1h1l1-1-1-1-1 1zm-3-2v1h1l-1-1zm13-1v1h1v-1h-1zm-8 1l1 1 3-3-4 2zm-52 1l3-4-3 4zm61-2l2-2-2 2zm-4 2l4-4-2 2-2 2zm-13-4l3 4-3-4zm-38-1l4 15v-1l-2-9a77 77 0 01-2-5zm36-2h1-1zm-32-1l1 1-1-1zm30-2l2 2-2-2zm0-1zm0-2l8 11v1l2-2-10-10zm0-1v1-1zm-37-3l2 5v-1l-1-4h-1zm8 0l1-1-1 1zm-8-1zm0 0zm10 0l2-1-2 1zm20-3l5 7v-1l-5-6zm-22 3l4-4-4 4zm18-5l1 2-1-2zm3-1l1 1-1-1zm-7 0c-7 6-11 11-14 15a346 346 0 009 35l7-8 7-7 10-8-1-1v1l-11-18-7-9zm4 0h1-1zm-11-1h1-1zm8-1l2 2v-1l-2-1zm-1-3h1-1zm3-1V9v1zm0-6h1l-2 3h1l4-3h1l-6 8v1l3 2-1-3h1l6 9 14 16 3-2 6-6-6 7-1 1 3-1h1l2-2h1v1l-1 2 4-5h1v1l-1 2 2-1h1l-3 4-3 2-3 4-1 1 3 6v1l-4-4 1 3v1l-4-3-5 5v1l-14 14-9 6v-1l-2 2 2 9-4-7h-1l1 4h-1l-1-3-4 4h-1l2-2 1-1h-1l-1 1h-1l1-2-3 3v-2l3-3h-1l-3 2v-1l4-4 1-2-4-10-1-4h1l2 4v-1l-2-7v-1l-5-17-1 3h-1l-6 7-1-1 3-4h-1l2-2v-1l-3 2v-1l2-1-1-1 5-4v-1h-1l2-2-2-5h1v1l-2-10 4 8v-2l2 3-1-6h1l1 5 8-9 5-4-1-1V9h1l1 1-3-4h1l3 4 2-3 2-2 1-1zm44 7v2-2zm14 58zm-1-2v1-1zm29 0l3 3-3-3zm-29 0zm0-1v1-1zm4 0v1-1zm-4 0zm33-1v2l2 2-2-4zm-29 0zm26-1h1-1zm0-1v1-1zm3 0l2 3 2 1-4-4zm-29-2a240 240 0 004 16l-1-7-3-9zm25-1l3 3-3-3zm-7-2l2 2-2-2zm1-3l2 4 4 3v-1l-6-6zm-1-3l6 7v-1l-6-6zm-22 0a131 131 0 013 11v-1a37 37 0 00-2-10h-1zm-1 0l1 3-1-3zm-3 0l3 13h1l-4-13zm3-1v1-1zm0 0zm19-1l1 1-1-1zm-19 0zm-3 0v1-1zm3-1v1-1zm15 0l4 3v-1l-3-2h-1zm-14-1v1-1zm-5 0v1h1l-1-1zm4-3v3l1-1-1-2zm2-1v2l2-2-2-1v1zm10-1l3 3-3-3zm-6 0l-1 1 3 2h1l-3-3zm5 0zm-12 0v1h1v-1h-1zm8 0l9 8v1-1a127 127 0 00-9-8zm-4 0l1 1 2-1-1-1-2 1zm-2-1h1-1zm7-1v1l2 2v-1h1v-1l-3-1zm1 0l1 1v-1h-1zm-3 0h1v-1l-1 1zm1-1h1v-1l-1 1zm0-3h1-1zm2 1l2-2-2 2zm-11-3v1l1 5v-1l-1-5zm10-1l-1 2 2-2h-1zm6-1h1-1zm-23-1v1-1zm0 0zm0-1l1 1-1-1zm29-3l-3 4v1l5-4-2-1zm5 0h3l-1-1-2 1zm-1-1v1-1zm-1 0zm-12 5l6-5-6 5zm12-5h1-1zm-9 0v-1 1zm13-1v1-1zm-14 0l-1 1h1v-1zm5-1v1-1zm-25 0a362 362 0 004 15v-1l-3-13-1-1zm20-1zm-1 0zm6 0h2-2zm-7 0zm-3 0h1-1zm-19 0l1 5h1l-2-5zm28 0zm-23-1v1-1zm-5 0v1h1v-1h-1zm0 0v1-1zm1 0h1-1zm29-1v1l2 1 1-1-3-1zm-30 0v1-1zm25 0zm4 0v1l1-1h-1zm-29 0zm28 0h-1 1zm-27-1v1-1zm5 0l3 14 1 1 1 3 9-8 3-5-17-5zm-5-1v1-1zm-2 0v1h1v-1h-1zm23 0l5 2v-1l-5-1zm-1 0h1-1zm-18 0l1 3h1l-1-3h-1zm18 0zm-15 0l13 4-10-4h-3zm-5 0zm-2 0zm3-1v3h1l-1-3zm-3 0v1-1zm1 0h1-1zm29 1v1l2-2h-1l-1 1zm-30-1zm19-1v1-1zm-7 0v1h6l-6-1zm-12 0v1-1zm18 0h1-1zm0 0zm-12-2v1l7 1v-1l-7-1zm-12 0h4-4zm5-2v1-1zm48 4a39 39 0 01-8 6h1l13-9-3 1-3 1v1zm9-5l-15 12-1 1 2 1-1 1 4 2-9-2v1h1v1h-1l-1-1-10 7-3 4 5 4 9 7 3 3v1c2 2 5 4 6 7 3 1 5 4 7 6h-1l-3-1 2 4h-1l-4-3-6-7 4 5 7 6h-1l-3-2 1 4-8-10a186 186 0 00-23-19l-2 2 2 9 2 4 2 8a222 222 0 014 14h-1l-2-5v5l-1-5-2-7v2h-1l1 3v3l-1 1-3-9v2a351 351 0 01-5-19l-2 1-1-1 2-3v-1h-1l-4 5h-1l5-6-4 3v-1l3-3v-3l-7 5h1l-1 1-1-1 8-5-3-11 3 10h-1l-2-5-5-20-7-3h4l-3-2 1-1 4 1-2-8h1l2 7h1l-1-5h1l2 6h1v-1h1v1l1 1v-2h1v2l8 2 16 4 5-3-3 4 4 1 3-2v1l-1 1 8-6h1l-1 1h1l4-4 3-2h1l-4 4h1a168 168 0 016-4l1 1h-1 2l-3 1zm-22 14zm3-1h-1 2-1zm37-13l1 4-1-4zm16 55zm0-1zm0-1v1-1zm0-1v1-1zm0-1v1-1zm-1 0h1-1zm2-1zm-2 0zm2-1v1-1zm-2 0v1-1zm-7 0zm0-1zm1-1v1l2 6-2-7zm7 0l1 2v-2h-1zm0-1v1-1zm0 0zm-1-2zm0-1v1-1zm0-1v1-1zm-1 0h1-1zm-8 0h1-1zm0-1zm0-1v1-1zm0-1v1-1zm0 0zm0-1zm9-1v1-1zm-9 0zm7-1zm0 0zm0-1zm0-1v1-1zm-1 0h1-1zm0-1zm-3 0a89 89 0 007 26l-3-13-4-13zm3-1v1-1zm-3 0zm3 0zm0-1zm0-1v1-1zm-1 0h1-1zm2-2l2 9-2-9zm-1 0h1-1zm0-1zm0-1v1-1zm-7 0v1l2 11-1-5-1-7zm7 0zm-7 0zm7-1v1-1zm-7 0zm7 0zm-8-2v1-1zm0-1v1-1zm-1-2l1 2-1-2zm0-1zm5-1l3 12-3-12zm1-1l1 9h1v-1l-2-8zm-1 0v1-1zm1 0zm-1 0h1-1zm1-2v1-1zm-10-2h1v-1l-1 1zm-4-2zm1 0v1l4-1v-1l-4 1zm-4-1h1-1zm-6-1v1-1zm10 0h1-1zm-10 0h1-1zm19 0h1-1zm-8 0h2-2zm11 1v1l12-3v-1l-12 3zm12-3h1-1zm-12 1v1l5-2-5 1zm5-1zm8-1zm-2 0zm1 0zm-8 0h2-2zm2 0zm-13-1zm4 0zm-4-1v1-1zm2-7l3 8 1-1v1a108 108 0 0118-4l-2 1h4l-3 1-1 1 4-1v1l-3 1-3 1 9-2-9 4-13 4 4 12 4 16 4 17 1 4v1l-3-8v2h-1a194 194 0 012 9v1h-1l-3-7v1l1 4-4-9-1 1 1 4v1h-1v-1l-1-3v1l-1-1v1l-1-1v-7 1l-1-5a170 170 0 00-4-17l-2-15v-1l-8 2h-1v-1l4-1-9 2-1-1-2 1v-1l8-2 2-1-7 2v-1l5-2a123 123 0 01-11 1l3-1h1-1l-1-1h1l14-3-3-8 4 8-1-7v-1l1 1v-2l2 3v-1h1v-2h1z" fill="#F2EFE7"/></svg>